<svg xmlns="http://www.w3.org/2000/svg" width="18" height="17.302" viewBox="0 0 18 17.302">
  <g id="_817887" data-name="817887" transform="translate(0 -4.003)">
    <g id="Сгруппировать_100" data-name="Сгруппировать 100" transform="translate(0 13.519)">
      <g id="Сгруппировать_99" data-name="Сгруппировать 99" transform="translate(0)">
        <path id="Контур_102" data-name="Контур 102" d="M9.228,270.019H4.037v-1.73a.288.288,0,0,0-.492-.2l-3.46,3.46a.288.288,0,0,0-.008.4l3.46,3.749a.289.289,0,0,0,.5-.2v-1.73H9.228a.288.288,0,0,0,.288-.288v-3.172A.288.288,0,0,0,9.228,270.019Zm-.288,3.172H3.749a.288.288,0,0,0-.288.288v1.281l-2.772-3,2.772-2.772v1.322a.288.288,0,0,0,.288.288H8.94Z" transform="translate(0 -268.001)" fill="#707070"/>
      </g>
    </g>
    <g id="Сгруппировать_102" data-name="Сгруппировать 102" transform="translate(7.786 4.003)">
      <g id="Сгруппировать_101" data-name="Сгруппировать 101" transform="translate(0 0)">
        <path id="Контур_103" data-name="Контур 103" d="M225.46,7.867a.287.287,0,0,0-.049-.051h0L220.8,4.068a.288.288,0,0,0-.47.224v1.73H216.29A.288.288,0,0,0,216,6.31V9.482a.288.288,0,0,0,.288.288h4.037V11.5a.288.288,0,0,0,.461.231l4.614-3.46A.288.288,0,0,0,225.46,7.867ZM220.9,10.924V9.482a.288.288,0,0,0-.288-.288h-4.037V6.6h4.037a.288.288,0,0,0,.288-.288V4.9l3.857,3.134Z" transform="translate(-216.002 -4.003)" fill="#707070"/>
      </g>
    </g>
    <g id="Сгруппировать_104" data-name="Сгруппировать 104" transform="translate(5.026 6.157)">
      <g id="Сгруппировать_103" data-name="Сгруппировать 103" transform="translate(0 0)">
        <rect id="Прямоугольник_85" data-name="Прямоугольник 85" width="2" height="1" transform="translate(-0.026 -0.154)" fill="#707070"/>
      </g>
    </g>
    <g id="Сгруппировать_106" data-name="Сгруппировать 106" transform="translate(3.59 6.157)">
      <g id="Сгруппировать_105" data-name="Сгруппировать 105" transform="translate(0 0)">
        <rect id="Прямоугольник_86" data-name="Прямоугольник 86" height="1" transform="translate(0.41 -0.154)" fill="#707070"/>
      </g>
    </g>
    <g id="Сгруппировать_108" data-name="Сгруппировать 108" transform="translate(1.077 7.593)">
      <g id="Сгруппировать_107" data-name="Сгруппировать 107" transform="translate(0 0)">
        <rect id="Прямоугольник_87" data-name="Прямоугольник 87" width="2" transform="translate(-0.077 0.41)" fill="#707070"/>
      </g>
    </g>
    <g id="Сгруппировать_110" data-name="Сгруппировать 110" transform="translate(6.103 9.029)">
      <g id="Сгруппировать_109" data-name="Сгруппировать 109" transform="translate(0 0)">
        <rect id="Прямоугольник_88" data-name="Прямоугольник 88" width="1" height="1" transform="translate(-0.103 -0.026)" fill="#707070"/>
      </g>
    </g>
    <g id="Сгруппировать_112" data-name="Сгруппировать 112" transform="translate(3.231 9.029)">
      <g id="Сгруппировать_111" data-name="Сгруппировать 111" transform="translate(0 0)">
        <rect id="Прямоугольник_89" data-name="Прямоугольник 89" width="2" height="1" transform="translate(-0.231 -0.026)" fill="#707070"/>
      </g>
    </g>
    <g id="Сгруппировать_114" data-name="Сгруппировать 114" transform="translate(2.154 9.029)">
      <g id="Сгруппировать_113" data-name="Сгруппировать 113" transform="translate(0 0)">
        <rect id="Прямоугольник_90" data-name="Прямоугольник 90" width="1" height="1" transform="translate(-0.154 -0.026)" fill="#707070"/>
      </g>
    </g>
    <g id="Сгруппировать_116" data-name="Сгруппировать 116" transform="translate(0.718 9.029)">
      <g id="Сгруппировать_115" data-name="Сгруппировать 115" transform="translate(0 0)">
        <rect id="Прямоугольник_91" data-name="Прямоугольник 91" height="1" transform="translate(0.282 -0.026)" fill="#707070"/>
      </g>
    </g>
    <g id="Сгруппировать_118" data-name="Сгруппировать 118" transform="translate(4.667 7.593)">
      <g id="Сгруппировать_117" data-name="Сгруппировать 117" transform="translate(0 0)">
        <rect id="Прямоугольник_92" data-name="Прямоугольник 92" transform="translate(0.333 0.41)" fill="#707070"/>
      </g>
    </g>
    <g id="Сгруппировать_120" data-name="Сгруппировать 120" transform="translate(5.744 7.593)">
      <g id="Сгруппировать_119" data-name="Сгруппировать 119" transform="translate(0 0)">
        <rect id="Прямоугольник_93" data-name="Прямоугольник 93" width="1" transform="translate(0.256 0.41)" fill="#707070"/>
      </g>
    </g>
    <g id="Сгруппировать_122" data-name="Сгруппировать 122" transform="translate(0 7.593)">
      <g id="Сгруппировать_121" data-name="Сгруппировать 121" transform="translate(0 0)">
        <rect id="Прямоугольник_94" data-name="Прямоугольник 94" width="1" transform="translate(0 0.41)" fill="#707070"/>
      </g>
    </g>
    <g id="Сгруппировать_124" data-name="Сгруппировать 124" transform="translate(10.052 15.491)">
      <g id="Сгруппировать_123" data-name="Сгруппировать 123" transform="translate(0 0)">
        <rect id="Прямоугольник_95" data-name="Прямоугольник 95" width="3" height="1" transform="translate(-0.052 -0.488)" fill="#707070"/>
      </g>
    </g>
    <g id="Сгруппировать_126" data-name="Сгруппировать 126" transform="translate(13.641 15.491)">
      <g id="Сгруппировать_125" data-name="Сгруппировать 125" transform="translate(0 0)">
        <rect id="Прямоугольник_96" data-name="Прямоугольник 96" height="1" transform="translate(0.358 -0.488)" fill="#707070"/>
      </g>
    </g>
    <g id="Сгруппировать_128" data-name="Сгруппировать 128" transform="translate(14 17.286)">
      <g id="Сгруппировать_127" data-name="Сгруппировать 127" transform="translate(0 0)">
        <rect id="Прямоугольник_97" data-name="Прямоугольник 97" width="2" height="1" transform="translate(0 -0.282)" fill="#707070"/>
      </g>
    </g>
    <g id="Сгруппировать_130" data-name="Сгруппировать 130" transform="translate(10.052 18.722)">
      <g id="Сгруппировать_129" data-name="Сгруппировать 129" transform="translate(0 0)">
        <rect id="Прямоугольник_98" data-name="Прямоугольник 98" width="1" transform="translate(-0.052 0.282)" fill="#707070"/>
      </g>
    </g>
    <g id="Сгруппировать_132" data-name="Сгруппировать 132" transform="translate(13.282 18.722)">
      <g id="Сгруппировать_131" data-name="Сгруппировать 131" transform="translate(0 0)">
        <rect id="Прямоугольник_99" data-name="Прямоугольник 99" width="2" transform="translate(-0.283 0.282)" fill="#707070"/>
      </g>
    </g>
    <g id="Сгруппировать_134" data-name="Сгруппировать 134" transform="translate(15.436 18.722)">
      <g id="Сгруппировать_133" data-name="Сгруппировать 133" transform="translate(0 0)">
        <rect id="Прямоугольник_100" data-name="Прямоугольник 100" width="1" transform="translate(-0.436 0.282)" fill="#707070"/>
      </g>
    </g>
    <g id="Сгруппировать_136" data-name="Сгруппировать 136" transform="translate(16.872 18.722)">
      <g id="Сгруппировать_135" data-name="Сгруппировать 135" transform="translate(0 0)">
        <rect id="Прямоугольник_101" data-name="Прямоугольник 101" width="1" transform="translate(0.128 0.282)" fill="#707070"/>
      </g>
    </g>
    <g id="Сгруппировать_138" data-name="Сгруппировать 138" transform="translate(12.565 17.286)">
      <g id="Сгруппировать_137" data-name="Сгруппировать 137" transform="translate(0 0)">
        <rect id="Прямоугольник_102" data-name="Прямоугольник 102" height="1" transform="translate(0.436 -0.282)" fill="#707070"/>
      </g>
    </g>
    <g id="Сгруппировать_140" data-name="Сгруппировать 140" transform="translate(10.052 17.286)">
      <g id="Сгруппировать_139" data-name="Сгруппировать 139" transform="translate(0 0)">
        <rect id="Прямоугольник_103" data-name="Прямоугольник 103" width="2" height="1" transform="translate(-0.052 -0.282)" fill="#707070"/>
      </g>
    </g>
    <g id="Сгруппировать_142" data-name="Сгруппировать 142" transform="translate(16.872 17.286)">
      <g id="Сгруппировать_141" data-name="Сгруппировать 141" transform="translate(0 0)">
        <rect id="Прямоугольник_104" data-name="Прямоугольник 104" height="1" transform="translate(0.128 -0.282)" fill="#707070"/>
      </g>
    </g>
    <g id="Сгруппировать_144" data-name="Сгруппировать 144" transform="translate(11.129 18.722)">
      <g id="Сгруппировать_143" data-name="Сгруппировать 143" transform="translate(0 0)">
        <rect id="Прямоугольник_105" data-name="Прямоугольник 105" width="1" transform="translate(-0.128 0.282)" fill="#707070"/>
      </g>
    </g>
    <g id="Сгруппировать_146" data-name="Сгруппировать 146" transform="translate(15.436 15.491)">
      <g id="Сгруппировать_145" data-name="Сгруппировать 145" transform="translate(0 0)">
        <rect id="Прямоугольник_106" data-name="Прямоугольник 106" width="2" height="1" transform="translate(-0.436 -0.488)" fill="#707070"/>
      </g>
    </g>
    <g id="Сгруппировать_148" data-name="Сгруппировать 148" transform="translate(0.359 6.157)">
      <g id="Сгруппировать_147" data-name="Сгруппировать 147" transform="translate(0 0)">
        <rect id="Прямоугольник_107" data-name="Прямоугольник 107" width="2" height="1" transform="translate(-0.359 -0.154)" fill="#707070"/>
      </g>
    </g>
  </g>
</svg>
