<svg xmlns="http://www.w3.org/2000/svg" width="13.953" height="14.432" viewBox="0 0 13.953 14.432">
  <g id="check-list" transform="translate(-8.5)">
    <path id="Контур_136" data-name="Контур 136" d="M22.03,7.1H20.621V6.472a1.664,1.664,0,0,0-1.268-1.607V.423A.423.423,0,0,0,18.929,0H8.923A.423.423,0,0,0,8.5.423V12.008a.423.423,0,0,0,.423.423h6.511v.346a1.658,1.658,0,0,0,1.657,1.655h3.7a1.658,1.658,0,0,0,1.657-1.655V7.526A.423.423,0,0,0,22.03,7.1Zm-2.255-.631V7.1H18.112V6.472a.832.832,0,0,1,1.663,0ZM9.346,11.585V.846h9.161V4.872a1.664,1.664,0,0,0-1.24,1.6V7.1H15.857a.423.423,0,0,0-.423.423v4.059Zm12.262,1.192a.811.811,0,0,1-.812.809h-3.7a.811.811,0,0,1-.812-.809V7.949h.987V9.062a.423.423,0,1,0,.846,0V7.949h1.663V9.062a.423.423,0,1,0,.846,0V7.949h.987Z" transform="translate(0 0)" fill="#232323"/>
    <path id="Контур_137" data-name="Контур 137" d="M69.8,60.139l-.494.53-.033-.041a.434.434,0,0,0-.677.544l.347.432a.434.434,0,0,0,.323.162h.016a.434.434,0,0,0,.318-.138l.836-.9a.434.434,0,0,0-.636-.592Z" transform="translate(-58.262 -58.263)" fill="#232323"/>
    <path id="Контур_138" data-name="Контур 138" d="M169.934,76.369h3.88a.434.434,0,1,0,0-.869h-3.88a.434.434,0,1,0,0,.869Z" transform="translate(-156.523 -73.303)" fill="#232323"/>
    <path id="Контур_139" data-name="Контур 139" d="M69.8,151.139l-.494.53-.033-.041a.434.434,0,0,0-.677.544l.347.432a.434.434,0,0,0,.323.162h.016a.434.434,0,0,0,.318-.138l.836-.9a.434.434,0,0,0-.636-.592Z" transform="translate(-58.262 -146.76)" fill="#232323"/>
    <path id="Контур_140" data-name="Контур 140" d="M169.934,167.369h2.432a.434.434,0,0,0,0-.869h-2.432a.434.434,0,1,0,0,.869Z" transform="translate(-156.499 -161.815)" fill="#232323"/>
    <path id="Контур_141" data-name="Контур 141" d="M69.8,242.139l-.494.53-.033-.041a.434.434,0,0,0-.677.544l.347.432a.434.434,0,0,0,.323.162h.016a.434.434,0,0,0,.318-.138l.836-.9a.434.434,0,0,0-.636-.592Z" transform="translate(-58.262 -235.204)" fill="#232323"/>
    <path id="Контур_142" data-name="Контур 142" d="M170.658,257.5h-.724a.434.434,0,1,0,0,.869h.724a.434.434,0,1,0,0-.869Z" transform="translate(-156.477 -250.254)" fill="#232323"/>
  </g>
</svg>
