<svg xmlns="http://www.w3.org/2000/svg" width="26.075" height="20.103" viewBox="0 0 26.075 20.103">
  <g id="_869121-1" data-name="869121-1" transform="translate(-2.897 -68.867)">
    <g id="Сгруппировать_55" data-name="Сгруппировать 55" transform="translate(3.44 68.867)">
      <g id="Сгруппировать_54" data-name="Сгруппировать 54" transform="translate(0 0)">
        <path id="Контур_48" data-name="Контур 48" d="M24.3,75.294H22.564l.522-5.989c0-.011,0-.022,0-.032v0h0a.4.4,0,0,0-.243-.369l0,0-.028-.01-.01,0-.023-.006-.016,0-.021,0-.02,0H14.44a.4.4,0,1,0,0,.806h7.805l-.8,9.205v0l-.2,2.323h-14l.234-2.417h2.665a.4.4,0,0,0,0-.806H7.555l.494-5.1h4.242a.4.4,0,1,0,0-.806H8.128l.232-2.4h4.469a.4.4,0,1,0,0-.806H7.994a.4.4,0,0,0-.393.318v0c0,.01,0,.02,0,.031s0,.006,0,.01v0l-.275,2.841H4.4a.4.4,0,1,0,0,.806H7.24l-.494,5.1H5.309a.4.4,0,0,0,0,.806H6.668L6.4,81.563h0l-.416,4.3h0v0c0,.006,0,.011,0,.017s0,.015,0,.022h0c0,.01,0,.021,0,.031s0,.007,0,.01,0,.021,0,.031v.009c0,.008,0,.015.006.023s0,.011,0,.016l0,0a.4.4,0,0,0,.1.158l0,0,.013.012a.4.4,0,0,0,.093.064l.021.01.007,0,.031.011h0L6.3,86.3h0l.035.005h0l.039,0H8.177a3.066,3.066,0,0,0,6.08,0h6.462a3.066,3.066,0,0,0,6.08,0h1.795l.04,0h.007l.031,0,.013,0,.024-.006.016-.005.02-.007.016-.007.018-.008.016-.009.016-.01.015-.01.016-.012.013-.011.016-.015.011-.011.016-.018.009-.01.017-.022.006-.008c.007-.01.013-.02.018-.03v0c.006-.011.012-.023.017-.034l0-.01c0-.008.006-.017.009-.025l0-.017.005-.02c0-.006,0-.012,0-.018s0-.011,0-.016c.017-.137.333-2.668.473-4.3v0c.041-.472.067-.869.067-1.112A5.243,5.243,0,0,0,24.3,75.294Zm-1.8.806h1.648l-.211,2.417H22.284ZM11.217,88.164A2.262,2.262,0,1,1,13.479,85.9,2.264,2.264,0,0,1,11.217,88.164Zm12.541,0A2.262,2.262,0,1,1,26.02,85.9,2.264,2.264,0,0,1,23.759,88.164ZM28.236,85.5H26.8a3.066,3.066,0,0,0-6.08,0H14.257a3.066,3.066,0,0,0-6.08,0H6.827l.338-3.492H21.611l.04,0h.007l.031,0,.013,0,.024-.006.016-.005.02-.007.017-.007.018-.008.016-.009.016-.01.015-.01.016-.012.014-.011.015-.014.012-.012.014-.016.011-.013.013-.017.009-.013.011-.019.008-.014.009-.019.007-.016.007-.019L22,81.72l0-.019c0-.006,0-.013,0-.019s0-.013,0-.019,0-.013,0-.02v0l.2-2.318H24.3a2.886,2.886,0,0,1,2.38,1.317,3.305,3.305,0,0,0,1.952,1.334C28.511,83.212,28.321,84.8,28.236,85.5Zm.46-4.334a2.636,2.636,0,0,1-1.413-1.056,3.783,3.783,0,0,0-2.545-1.569l.208-2.393a4.438,4.438,0,0,1,3.78,4.383C28.727,80.682,28.716,80.9,28.7,81.166Z" transform="translate(-4 -68.867)" fill="#707070"/>
      </g>
    </g>
    <g id="Сгруппировать_57" data-name="Сгруппировать 57" transform="translate(9.19 84.475)">
      <g id="Сгруппировать_56" data-name="Сгруппировать 56" transform="translate(0 0)">
        <path id="Контур_49" data-name="Контур 49" d="M144.969,358.524a1.461,1.461,0,1,0,1.461,1.461A1.463,1.463,0,0,0,144.969,358.524Zm0,2.125a.664.664,0,1,1,.664-.664A.665.665,0,0,1,144.969,360.649Z" transform="translate(-143.508 -358.524)" fill="#707070"/>
      </g>
    </g>
    <g id="Сгруппировать_59" data-name="Сгруппировать 59" transform="translate(21.748 84.475)">
      <g id="Сгруппировать_58" data-name="Сгруппировать 58" transform="translate(0 0)">
        <path id="Контур_50" data-name="Контур 50" d="M378.457,358.524a1.461,1.461,0,1,0,1.461,1.461A1.463,1.463,0,0,0,378.457,358.524Zm0,2.125a.664.664,0,1,1,.664-.664A.665.665,0,0,1,378.457,360.649Z" transform="translate(-376.996 -358.524)" fill="#707070"/>
      </g>
    </g>
    <g id="Сгруппировать_61" data-name="Сгруппировать 61" transform="translate(2.897 75.297)">
      <g id="Сгруппировать_60" data-name="Сгруппировать 60" transform="translate(0 0)">
        <path id="Контур_51" data-name="Контур 51" d="M29.18,188.527H27.232a.4.4,0,0,0,0,.8H29.18a.4.4,0,0,0,0-.8Z" transform="translate(-26.834 -188.527)" fill="#707070"/>
      </g>
    </g>
  </g>
</svg>
