<svg xmlns="http://www.w3.org/2000/svg" width="14" height="12.456" viewBox="0 0 14 12.456">
  <path id="_1077035" data-name="1077035" d="M7,12.456a.821.821,0,0,1-.541-.2c-.566-.495-1.111-.959-1.592-1.369l0,0A29.606,29.606,0,0,1,1.389,7.618,5.211,5.211,0,0,1,0,4.207,4.376,4.376,0,0,1,1.111,1.219,3.765,3.765,0,0,1,3.911,0a3.521,3.521,0,0,1,2.2.759A4.5,4.5,0,0,1,7,1.688,4.5,4.5,0,0,1,7.89.759,3.521,3.521,0,0,1,10.089,0a3.765,3.765,0,0,1,2.8,1.219A4.376,4.376,0,0,1,14,4.207a5.21,5.21,0,0,1-1.388,3.411,29.6,29.6,0,0,1-3.476,3.262c-.482.411-1.028.876-1.595,1.372a.822.822,0,0,1-.541.2ZM3.911.82a2.954,2.954,0,0,0-2.2.955A3.559,3.559,0,0,0,.82,4.208,4.384,4.384,0,0,0,2.02,7.1,29.134,29.134,0,0,0,5.4,10.257l0,0c.483.412,1.03.878,1.6,1.376.573-.5,1.121-.966,1.605-1.379A29.142,29.142,0,0,0,11.98,7.1a4.385,4.385,0,0,0,1.2-2.888,3.559,3.559,0,0,0-.893-2.433,2.953,2.953,0,0,0-2.2-.955,2.72,2.72,0,0,0-1.7.588,3.98,3.98,0,0,0-.946,1.1.518.518,0,0,1-.889,0,3.976,3.976,0,0,0-.946-1.1A2.72,2.72,0,0,0,3.911.82Zm0,0" transform="translate(0 0)" fill="#232323"/>
</svg>
