<svg id="list" xmlns="http://www.w3.org/2000/svg" width="16" height="12.728" viewBox="0 0 16 12.728">
  <path id="Контур_108" data-name="Контур 108" d="M0,3.54H3.54V0H0ZM.938.938H2.6V2.6H.938Zm0,0" fill="#707070"/>
  <path id="Контур_109" data-name="Контур 109" d="M149.3,0V3.54h11.334V0Zm10.4,2.6h-9.459V.938h9.459Zm0,0" transform="translate(-144.631)" fill="#707070"/>
  <path id="Контур_110" data-name="Контур 110" d="M0,150.548H3.54v-3.54H0Zm.938-2.6H2.6v1.665H.938Zm0,0" transform="translate(0 -142.414)" fill="#707070"/>
  <path id="Контур_111" data-name="Контур 111" d="M149.3,150.548h11.334v-3.54H149.3Zm.938-2.6h9.459v1.665h-9.459Zm0,0" transform="translate(-144.631 -142.414)" fill="#707070"/>
  <path id="Контур_112" data-name="Контур 112" d="M0,297.553H3.54v-3.541H0Zm.938-2.6H2.6v1.665H.938Zm0,0" transform="translate(0 -284.824)" fill="#707070"/>
  <path id="Контур_113" data-name="Контур 113" d="M149.3,297.553h11.334v-3.541H149.3Zm.938-2.6h9.459v1.665h-9.459Zm0,0" transform="translate(-144.631 -284.824)" fill="#707070"/>
</svg>
