<svg xmlns="http://www.w3.org/2000/svg" width="14" height="14" viewBox="0 0 14 14">
  <g id="logout" transform="translate(0 -0.008)">
    <path id="Контур_148" data-name="Контур 148" d="M283.311,208.883h-5.542a.437.437,0,0,1,0-.875h5.542a.437.437,0,1,1,0,.875Zm0,0" transform="translate(-269.749 -202.313)" fill="#232323"/>
    <path id="Контур_149" data-name="Контур 149" d="M400.441,133.221a.438.438,0,0,1-.309-.747l1.878-1.878-1.878-1.878a.438.438,0,1,1,.619-.619l2.187,2.187a.438.438,0,0,1,0,.619l-2.187,2.187A.435.435,0,0,1,400.441,133.221Zm0,0" transform="translate(-389.067 -124.463)" fill="#232323"/>
    <path id="Контур_150" data-name="Контур 150" d="M4.666,14.008a1.2,1.2,0,0,1-.362-.054l-3.51-1.17A1.177,1.177,0,0,1,0,11.674V1.175A1.168,1.168,0,0,1,1.166.008a1.2,1.2,0,0,1,.362.054l3.51,1.17a1.177,1.177,0,0,1,.794,1.109v10.5a1.168,1.168,0,0,1-1.167,1.167ZM1.166.883a.293.293,0,0,0-.292.292v10.5a.3.3,0,0,0,.2.281L4.571,13.12a.317.317,0,0,0,.1.013.292.292,0,0,0,.292-.292V2.341a.3.3,0,0,0-.2-.281L1.261.9a.317.317,0,0,0-.1-.013Zm0,0" transform="translate(0 0)" fill="#232323"/>
    <path id="Контур_151" data-name="Контур 151" d="M34.834,4.675a.438.438,0,0,1-.437-.437V1.612a.73.73,0,0,0-.729-.729H27.105a.437.437,0,1,1,0-.875h6.562a1.605,1.605,0,0,1,1.6,1.6V4.237A.438.438,0,0,1,34.834,4.675Zm0,0" transform="translate(-25.939)" fill="#232323"/>
    <path id="Контур_152" data-name="Контур 152" d="M184.1,282.007H181.77a.437.437,0,1,1,0-.875H184.1a.73.73,0,0,0,.729-.729v-2.625a.437.437,0,0,1,.875,0V280.4A1.605,1.605,0,0,1,184.1,282.007Zm0,0" transform="translate(-176.374 -269.749)" fill="#232323"/>
  </g>
</svg>
