<svg xmlns="http://www.w3.org/2000/svg" width="14.054" height="14.054" viewBox="0 0 14.054 14.054">
  <g id="money_·_ecommerce_·_shopping_·_buy_·_bag" data-name="money · ecommerce · shopping · buy · bag" transform="translate(-2 -2)">
    <path id="Контур_143" data-name="Контур 143" d="M20.171,44.342H19.7a.234.234,0,0,1-.234-.234.234.234,0,0,0-.468,0,.7.7,0,0,0,.7.7v.234a.234.234,0,0,0,.468,0v-.234a.7.7,0,1,0,0-1.405H19.7a.234.234,0,0,1,0-.468h.468a.234.234,0,0,1,.234.234.234.234,0,0,0,.468,0,.7.7,0,0,0-.7-.7v-.234a.234.234,0,0,0-.468,0v.234a.7.7,0,0,0,0,1.405h.468a.234.234,0,1,1,0,.468Z" transform="translate(-13.018 -30.631)" fill="#232323"/>
    <path id="Контур_144" data-name="Контур 144" d="M15.82,4.811H14.649V4.576A2.574,2.574,0,0,0,10.9,2.283,2.574,2.574,0,0,0,7.153,4.576v.234H5.045a.234.234,0,0,0-.234.234V9.027H3.171a.234.234,0,0,0-.234.234v.7h-.7A.234.234,0,0,0,2,10.2v5.622a.234.234,0,0,0,.234.234H11.6a.234.234,0,0,0,.234-.234v-.7h.7a.234.234,0,0,0,.234-.234v-.234h1.64a1.642,1.642,0,0,0,1.64-1.64V5.045A.234.234,0,0,0,15.82,4.811ZM12.072,2.468A2.111,2.111,0,0,1,14.18,4.576v.234H12.306V4.576a2.574,2.574,0,0,0-.937-1.986A2.119,2.119,0,0,1,12.072,2.468Zm0,4.45a.234.234,0,0,0,.234-.234v-.4a.468.468,0,1,1-.468,0v.4A.234.234,0,0,0,12.072,6.919ZM10.9,2.824a2.11,2.11,0,0,1,.937,1.752v.234H9.964V4.576A2.11,2.11,0,0,1,10.9,2.824ZM7.622,4.576A2.105,2.105,0,0,1,10.432,2.59,2.574,2.574,0,0,0,9.5,4.576v.234H7.622ZM7.387,6.919a.234.234,0,0,0,.234-.234v-.4a.468.468,0,1,1-.468,0v.4A.234.234,0,0,0,7.387,6.919ZM2.468,10.432H3.855a1.64,1.64,0,0,1-1.387,1.387Zm0,5.153V14.2a1.64,1.64,0,0,1,1.387,1.387Zm8.9,0H9.983A1.64,1.64,0,0,1,11.369,14.2Zm0-1.86a2.111,2.111,0,0,0-1.86,1.86H4.328a2.111,2.111,0,0,0-1.86-1.86V12.292a2.111,2.111,0,0,0,1.86-1.86H9.509a2.111,2.111,0,0,0,1.86,1.86Zm0-1.907a1.64,1.64,0,0,1-1.387-1.387h1.387Zm.937,2.83h-.468V10.2a.234.234,0,0,0-.234-.234h-8.2V9.5h8.9Zm.7-.468h-.234V9.261a.234.234,0,0,0-.234-.234H5.279V5.279H7.153v.5a.937.937,0,1,0,.468,0v-.5h4.216v.5a.937.937,0,1,0,.468,0v-.5H14.18v7.73A1.171,1.171,0,0,1,13.009,14.18Zm2.577-1.171a1.171,1.171,0,0,1-1.171,1.171h-.26a1.633,1.633,0,0,0,.494-1.171V5.279h.937Z" fill="#232323"/>
    <path id="Контур_145" data-name="Контур 145" d="M31.234,48.468h.937a.234.234,0,1,0,0-.468h-.937a.234.234,0,1,0,0,.468Z" transform="translate(-22.207 -35.226)" fill="#232323"/>
    <path id="Контур_146" data-name="Контур 146" d="M9,48.234a.234.234,0,0,0,.234.234h.937a.234.234,0,1,0,0-.468H9.234A.234.234,0,0,0,9,48.234Z" transform="translate(-5.36 -35.226)" fill="#232323"/>
  </g>
</svg>
