<svg xmlns="http://www.w3.org/2000/svg" width="19.297" height="19.296" viewBox="0 0 19.297 19.296">
  <g id="_860763-1" data-name="860763-1" transform="translate(0 -0.004)">
    <g id="Сгруппировать_180" data-name="Сгруппировать 180" transform="translate(0 1.382)">
      <g id="Сгруппировать_179" data-name="Сгруппировать 179">
        <path id="Контур_134" data-name="Контур 134" d="M15.85,42.407a.689.689,0,0,0-.689.689v6.891a.689.689,0,0,1-.689.689H2.067a.689.689,0,0,1-.689-.689V36.2a.689.689,0,0,1,.689-.689h8.27a.689.689,0,1,0,0-1.378H2.067A2.067,2.067,0,0,0,0,36.2V49.987a2.067,2.067,0,0,0,2.067,2.067h12.4a2.067,2.067,0,0,0,2.067-2.067V43.1A.689.689,0,0,0,15.85,42.407Z" transform="translate(0 -34.137)" fill="#c5c5c5"/>
      </g>
    </g>
    <g id="Сгруппировать_182" data-name="Сгруппировать 182" transform="translate(4.135 0.004)">
      <g id="Сгруппировать_181" data-name="Сгруппировать 181" transform="translate(0 0)">
        <path id="Контур_135" data-name="Контур 135" d="M116.8.777a2.638,2.638,0,0,0-3.731,0l-9.078,9.077a.7.7,0,0,0-.166.269l-1.378,4.135a.689.689,0,0,0,.653.907.7.7,0,0,0,.218-.035l4.135-1.378a.689.689,0,0,0,.269-.167L116.8,4.507A2.638,2.638,0,0,0,116.8.777Z" transform="translate(-102.409 -0.004)" fill="#c5c5c5"/>
      </g>
    </g>
  </g>
</svg>
