<svg xmlns="http://www.w3.org/2000/svg" width="33.72" height="30" viewBox="0 0 33.72 30">
  <path id="_1077035" data-name="1077035" d="M16.86,30a1.977,1.977,0,0,1-1.3-.49c-1.362-1.191-2.676-2.31-3.834-3.3l-.006-.005a71.308,71.308,0,0,1-8.372-7.858A12.551,12.551,0,0,1,0,10.134a10.539,10.539,0,0,1,2.675-7.2A9.067,9.067,0,0,1,9.42,0a8.482,8.482,0,0,1,5.3,1.829A10.84,10.84,0,0,1,16.86,4.066,10.841,10.841,0,0,1,19,1.829,8.482,8.482,0,0,1,24.3,0a9.068,9.068,0,0,1,6.745,2.936,10.539,10.539,0,0,1,2.675,7.2,12.549,12.549,0,0,1-3.344,8.215A71.3,71.3,0,0,1,22,26.207c-1.161.989-2.476,2.11-3.841,3.3a1.979,1.979,0,0,1-1.3.489ZM9.42,1.975a7.114,7.114,0,0,0-5.293,2.3,8.573,8.573,0,0,0-2.152,5.859c0,2.4.891,4.544,2.89,6.955A70.172,70.172,0,0,0,13,24.7l.006.005c1.163.991,2.482,2.115,3.854,3.315,1.38-1.2,2.7-2.328,3.866-3.32a70.19,70.19,0,0,0,8.132-7.614c2-2.412,2.89-4.557,2.89-6.955a8.573,8.573,0,0,0-2.152-5.859,7.113,7.113,0,0,0-5.293-2.3,6.551,6.551,0,0,0-4.09,1.416,9.585,9.585,0,0,0-2.279,2.637,1.247,1.247,0,0,1-2.142,0A9.576,9.576,0,0,0,13.51,3.391,6.551,6.551,0,0,0,9.42,1.975Zm0,0" transform="translate(0 0)" fill="#232323"/>
</svg>
