<svg xmlns="http://www.w3.org/2000/svg" width="21.851" height="19.441" viewBox="0 0 21.851 19.441">
  <path id="_1077035" data-name="1077035" d="M10.926,19.441a1.281,1.281,0,0,1-.845-.317c-.883-.772-1.734-1.5-2.485-2.137l0,0a46.209,46.209,0,0,1-5.425-5.092A8.133,8.133,0,0,1,0,6.567,6.83,6.83,0,0,1,1.734,1.9,5.876,5.876,0,0,1,6.1,0,5.5,5.5,0,0,1,9.538,1.185a7.024,7.024,0,0,1,1.388,1.449,7.025,7.025,0,0,1,1.388-1.449A5.5,5.5,0,0,1,15.747,0a5.876,5.876,0,0,1,4.371,1.9,6.829,6.829,0,0,1,1.733,4.664,8.132,8.132,0,0,1-2.167,5.324,46.2,46.2,0,0,1-5.425,5.092c-.752.641-1.6,1.367-2.489,2.141a1.282,1.282,0,0,1-.845.317ZM6.1,1.28a4.61,4.61,0,0,0-3.43,1.49,5.556,5.556,0,0,0-1.395,3.8,6.843,6.843,0,0,0,1.873,4.507,45.473,45.473,0,0,0,5.27,4.935l0,0c.754.642,1.608,1.371,2.5,2.148.895-.779,1.75-1.508,2.505-2.152A45.484,45.484,0,0,0,18.7,11.074a6.844,6.844,0,0,0,1.873-4.507,5.556,5.556,0,0,0-1.395-3.8,4.61,4.61,0,0,0-3.43-1.49A4.245,4.245,0,0,0,13.1,2.2,6.211,6.211,0,0,0,11.62,3.907a.808.808,0,0,1-1.388,0A6.205,6.205,0,0,0,8.755,2.2,4.245,4.245,0,0,0,6.1,1.28Zm0,0" transform="translate(0)" fill="#c5c5c5"/>
</svg>
