<svg xmlns="http://www.w3.org/2000/svg" width="11.49" height="13.561" viewBox="0 0 11.49 13.561">
  <g id="_709699" data-name="709699" transform="translate(-31.744)">
    <g id="Сгруппировать_29" data-name="Сгруппировать 29" transform="translate(34.316)">
      <g id="Сгруппировать_28" data-name="Сгруппировать 28" transform="translate(0)">
        <path id="Контур_37" data-name="Контур 37" d="M113.765,0a3.173,3.173,0,1,0,3.173,3.173A3.172,3.172,0,0,0,113.765,0Z" transform="translate(-110.592)" fill="#ea5788"/>
      </g>
    </g>
    <g id="Сгруппировать_31" data-name="Сгруппировать 31" transform="translate(31.744 6.713)">
      <g id="Сгруппировать_30" data-name="Сгруппировать 30" transform="translate(0)">
        <path id="Контур_38" data-name="Контур 38" d="M38.725,205.824H36.253a4.512,4.512,0,0,0-4.509,4.509v1.837a.492.492,0,0,0,.5.5H42.733a.492.492,0,0,0,.5-.5v-1.837A4.512,4.512,0,0,0,38.725,205.824Z" transform="translate(-31.744 -205.824)" fill="#ea5788"/>
      </g>
    </g>
  </g>
</svg>
