<svg xmlns="http://www.w3.org/2000/svg" width="34.977" height="30" viewBox="0 0 34.977 30">
  <path id="_73991-1" data-name="73991-1" d="M34.893,32.945,29.846,22.83a.843.843,0,0,0-.668-1.362H19.641a1.022,1.022,0,0,0,.707-.972h0a1.021,1.021,0,0,0-1.022-1.022h-.376a2.378,2.378,0,1,0-2.923,0h-.376A1.021,1.021,0,0,0,14.631,20.5h0a1.022,1.022,0,0,0,.707.972H5.9v0H5.8a.844.844,0,0,0-.617,1.424L.085,33.108a.812.812,0,0,0-.074.5.518.518,0,0,0,0,.1,5.913,5.913,0,0,0,11.77,0,.534.534,0,0,0,0-.1.812.812,0,0,0-.074-.5L6.742,23.162h9.605V42.69H8.47a1.716,1.716,0,0,0-1.716,1.716.818.818,0,0,0,.818.818H27.407a.818.818,0,0,0,.818-.818,1.716,1.716,0,0,0-1.716-1.716H18.631V23.162h9.523l-4.882,9.783a.812.812,0,0,0-.074.5.518.518,0,0,0,0,.1,5.913,5.913,0,0,0,11.77,0,.535.535,0,0,0,0-.1A.811.811,0,0,0,34.893,32.945ZM1.9,33.13l3.994-8,3.994,8Zm23.188-.163,3.994-8,3.994,8Z" transform="translate(-0.001 -15.224)" fill="#232323"/>
</svg>
