<svg xmlns="http://www.w3.org/2000/svg" width="25.278" height="40.86" viewBox="0 0 25.278 40.86">
  <g id="underwear" transform="translate(-98.166 0)">
    <g id="Сгруппировать_62" data-name="Сгруппировать 62" transform="translate(98.166 0)">
      <path id="Контур_52" data-name="Контур 52" d="M123.229,1.216a1.59,1.59,0,0,0-.972-.747L120.71.055a1.6,1.6,0,0,0-1.961,1.132l-2.035,7.6a8.089,8.089,0,0,0-3.215,2.464,14.324,14.324,0,0,0-2.035,3.388h-1.316a14.32,14.32,0,0,0-2.035-3.388A8.088,8.088,0,0,0,104.9,8.784l-2.035-7.6A1.6,1.6,0,0,0,100.9.055L99.354.47a1.6,1.6,0,0,0-1.133,1.961l1.838,6.858a7.653,7.653,0,0,0-1.1,6.812,5.028,5.028,0,0,0,2.142,2.583l.478,2.816a.8.8,0,0,0,.515.618,24.916,24.916,0,0,0,5.009,1.118.8.8,0,1,0,.2-1.588,25.031,25.031,0,0,1-4.231-.885l-.247-1.452a7.562,7.562,0,0,0,1.358.121,8.156,8.156,0,0,0,2.993-.57,5.229,5.229,0,0,0,2.981-2.625h1.275a5.229,5.229,0,0,0,2.982,2.625,8.156,8.156,0,0,0,2.993.57,7.563,7.563,0,0,0,1.358-.121l-.247,1.452a25.031,25.031,0,0,1-4.231.885.8.8,0,1,0,.2,1.588,24.909,24.909,0,0,0,5.01-1.118.8.8,0,0,0,.515-.618l.478-2.816a5.029,5.029,0,0,0,2.142-2.583,7.653,7.653,0,0,0-1.1-6.812l1.838-6.858a1.59,1.59,0,0,0-.161-1.215ZM101.315,1.6l1.815,6.775a6.369,6.369,0,0,0-1.633.092L99.768,2.017Zm5.279,15.772a6.445,6.445,0,0,1-3.794.292,3.323,3.323,0,0,1-2.339-2.131,6.109,6.109,0,0,1,.966-5.412c2.011-.506,3.835.2,5.426,2.116a12.854,12.854,0,0,1,1.9,3.225,3.643,3.643,0,0,1-2.162,1.911Zm14.556-1.839a3.323,3.323,0,0,1-2.339,2.131,6.444,6.444,0,0,1-3.794-.292,3.643,3.643,0,0,1-2.162-1.911c.486-1.2,2.9-6.45,7.33-5.34A6.109,6.109,0,0,1,121.15,15.535Zm-1.036-7.066a6.372,6.372,0,0,0-1.633-.092L120.3,1.6l1.547.414Z" transform="translate(-98.166 0)" fill="#232323"/>
      <path id="Контур_53" data-name="Контур 53" d="M137.1,353.271a48.265,48.265,0,0,1-17.354,0,.8.8,0,0,0-.81.331,10.456,10.456,0,0,0-1.618,4.99.8.8,0,0,0,.671.818c3.812.626,6.173,2.542,7.018,5.695a.8.8,0,0,0,.566.566,13.8,13.8,0,0,0,5.7,0,.8.8,0,0,0,.566-.566c.845-3.153,3.206-5.069,7.018-5.695a.8.8,0,0,0,.671-.818,10.455,10.455,0,0,0-1.618-4.99.8.8,0,0,0-.81-.331Zm-6.671,10.953a14.152,14.152,0,0,1-4.011,0c-1.05-3.287-3.6-5.435-7.437-6.257a9.35,9.35,0,0,1,1.007-3.023,50.188,50.188,0,0,0,16.871,0,9.351,9.351,0,0,1,1.007,3.023C134.035,358.789,131.48,360.937,130.43,364.224Z" transform="translate(-115.785 -325.109)" fill="#232323"/>
      <path id="Контур_54" data-name="Контур 54" d="M247.6,274.134a.8.8,0,0,0-.8-.8h0a.8.8,0,1,0,.8.8Z" transform="translate(-234.163 -251.523)" fill="#232323"/>
    </g>
  </g>
</svg>
