<svg xmlns="http://www.w3.org/2000/svg" width="24.642" height="30.305" viewBox="0 0 24.642 30.305">
  <g id="_711880" data-name="711880" transform="translate(-47.834)">
    <g id="Сгруппировать_25" data-name="Сгруппировать 25" transform="translate(47.834 7.811)">
      <g id="Сгруппировать_24" data-name="Сгруппировать 24">
        <path id="Контур_35" data-name="Контур 35" d="M72.151,132.32a1.171,1.171,0,0,0-.846-.361h-22.3a1.172,1.172,0,0,0-1.171,1.218c.005.127.511,12.716.742,17.915a3.478,3.478,0,0,0,3.514,3.361H68.18a3.475,3.475,0,0,0,3.514-3.346l.781-17.925A1.172,1.172,0,0,0,72.151,132.32Zm-2.8,18.7a1.159,1.159,0,0,1-1.172,1.091H52.091A1.163,1.163,0,0,1,50.918,151c-.189-4.248-.56-13.4-.693-16.7H70.081Z" transform="translate(-47.834 -131.959)" fill="#232323"/>
      </g>
    </g>
    <g id="Сгруппировать_27" data-name="Сгруппировать 27" transform="translate(53.301)">
      <g id="Сгруппировать_26" data-name="Сгруппировать 26">
        <path id="Контур_36" data-name="Контур 36" d="M147.042,0a6.842,6.842,0,0,0-6.834,6.834v8.709a1.172,1.172,0,1,0,2.343,0V6.834a4.491,4.491,0,1,1,8.982,0v8.709a1.172,1.172,0,1,0,2.343,0V6.834A6.842,6.842,0,0,0,147.042,0Z" transform="translate(-140.208)" fill="#232323"/>
      </g>
    </g>
  </g>
</svg>
