<svg xmlns="http://www.w3.org/2000/svg" width="53" height="40.86" viewBox="0 0 53 40.86">
  <g id="_869121-1" data-name="869121-1" transform="translate(-2.897 -68.867)">
    <g id="Сгруппировать_55" data-name="Сгруппировать 55" transform="translate(0 68.867)">
      <g id="Сгруппировать_54" data-name="Сгруппировать 54" transform="translate(0 0)">
        <path id="Контур_48" data-name="Контур 48" d="M45.253,81.931H41.733l1.06-12.174c0-.022,0-.044,0-.065,0,0,0,0,0-.005h0a.819.819,0,0,0-.494-.75l-.007,0-.056-.021-.021-.007-.047-.012-.033-.008-.042-.007-.04-.005h-.007l-.043,0H25.22a.819.819,0,0,0,0,1.638H41.085l-1.63,18.71v0l-.411,4.721H10.592l.476-4.913h5.417a.819.819,0,0,0,0-1.638H11.227l1-10.371h8.622a.819.819,0,0,0,0-1.638H12.39l.473-4.876h9.083a.819.819,0,0,0,0-1.638H12.118a.819.819,0,0,0-.8.646l0,.008c0,.02-.007.041-.01.062s0,.013,0,.02v0l-.559,5.774H4.819a.819.819,0,0,0,0,1.638h5.767l-1,10.371H6.66a.819.819,0,0,0,0,1.638H9.423l-.547,5.647v0l-.846,8.732v.006c0,.011,0,.022,0,.034s0,.03,0,.045v0c0,.021,0,.042,0,.063s0,.013,0,.02.006.042.01.063,0,.012,0,.018.008.031.012.046.005.022.008.032l0,.009a.819.819,0,0,0,.195.321l0,.005.027.025a.813.813,0,0,0,.19.13l.044.021.014.005c.021.008.041.016.062.023l.006,0c.024.007.049.014.074.019l.01,0c.024,0,.048.008.072.011h0q.04,0,.08,0h3.646a6.233,6.233,0,0,0,12.358,0H37.982a6.233,6.233,0,0,0,12.358,0h3.648c.027,0,.054,0,.081,0l.014,0,.063-.01.026-.006.048-.012.032-.01.04-.015.033-.014.036-.017.033-.018.033-.02.03-.02.033-.024.027-.022.033-.03.022-.022.033-.036.017-.02c.012-.015.023-.03.034-.046l.011-.016c.013-.02.026-.041.037-.062l0,0c.012-.023.024-.046.034-.07l.008-.021c.007-.017.013-.034.019-.051s.006-.023.009-.035.007-.027.01-.041,0-.025.007-.038,0-.022.006-.033c.035-.278.676-5.422.962-8.749v-.01c.082-.959.135-1.766.135-2.261A10.657,10.657,0,0,0,45.253,81.931Zm-3.662,1.638h3.35l-.428,4.912h-3.35ZM18.67,108.089a4.6,4.6,0,1,1,4.6-4.6A4.6,4.6,0,0,1,18.67,108.089Zm25.491,0a4.6,4.6,0,1,1,4.6-4.6A4.6,4.6,0,0,1,44.161,108.089Zm9.1-5.416H50.34a6.233,6.233,0,0,0-12.358,0H24.849a6.233,6.233,0,0,0-12.358,0H9.746l.688-7.1H39.8a.805.805,0,0,0,.081,0l.015,0,.064-.01.027-.007.049-.013.032-.011.041-.015.034-.015.036-.017.033-.019.033-.02.031-.021L40.3,95.4l.028-.023.03-.028.025-.025.029-.032.022-.026.026-.035.019-.027.023-.038.016-.029c.007-.013.013-.026.019-.039s.01-.021.014-.032.01-.026.015-.039.008-.023.012-.035.007-.026.01-.039.007-.026.009-.039,0-.026.006-.039,0-.027.006-.041,0,0,0-.006l.41-4.711h4.232c2.509,0,3.64,1.3,4.838,2.676a6.718,6.718,0,0,0,3.967,2.712C53.82,98.024,53.435,101.258,53.262,102.673Zm.936-8.809a5.358,5.358,0,0,1-2.872-2.145c-1.134-1.3-2.519-2.893-5.173-3.189l.424-4.864a9.02,9.02,0,0,1,7.684,8.909C54.26,92.882,54.237,93.328,54.2,93.865Z" transform="translate(0 -68.867)" fill="#232323"/>
      </g>
    </g>
    <g id="Сгруппировать_57" data-name="Сгруппировать 57" transform="translate(15.688 100.592)">
      <g id="Сгруппировать_56" data-name="Сгруппировать 56" transform="translate(0 0)">
        <path id="Контур_49" data-name="Контур 49" d="M146.477,358.524a2.969,2.969,0,1,0,2.969,2.969A2.973,2.973,0,0,0,146.477,358.524Zm0,4.319a1.35,1.35,0,1,1,1.35-1.35A1.351,1.351,0,0,1,146.477,362.843Z" transform="translate(-143.508 -358.524)" fill="#232323"/>
      </g>
    </g>
    <g id="Сгруппировать_59" data-name="Сгруппировать 59" transform="translate(41.213 100.592)">
      <g id="Сгруппировать_58" data-name="Сгруппировать 58" transform="translate(0 0)">
        <path id="Контур_50" data-name="Контур 50" d="M379.965,358.524a2.969,2.969,0,1,0,2.969,2.969A2.973,2.973,0,0,0,379.965,358.524Zm0,4.319a1.35,1.35,0,1,1,1.35-1.35A1.351,1.351,0,0,1,379.965,362.843Z" transform="translate(-376.996 -358.524)" fill="#232323"/>
      </g>
    </g>
    <g id="Сгруппировать_61" data-name="Сгруппировать 61" transform="translate(2.897 81.937)">
      <g id="Сгруппировать_60" data-name="Сгруппировать 60" transform="translate(0 0)">
        <path id="Контур_51" data-name="Контур 51" d="M31.6,188.527H27.644a.81.81,0,0,0,0,1.62H31.6a.81.81,0,0,0,0-1.62Z" transform="translate(-26.834 -188.527)" fill="#232323"/>
      </g>
    </g>
  </g>
</svg>
