<svg xmlns="http://www.w3.org/2000/svg" width="25" height="25" viewBox="0 0 25 25">
  <g id="_1077093" data-name="1077093" transform="translate(0 24.999) rotate(-90)">
    <path id="Контур_3" data-name="Контур 3" d="M18.232,0H6.766A6.775,6.775,0,0,0,0,6.767V18.233A6.775,6.775,0,0,0,6.766,25H18.232A6.775,6.775,0,0,0,25,18.233V6.767A6.775,6.775,0,0,0,18.232,0ZM12.5,19.336A6.836,6.836,0,1,1,19.335,12.5,6.843,6.843,0,0,1,12.5,19.336Zm7-12.059a2.02,2.02,0,1,1,2.02-2.02A2.022,2.022,0,0,1,19.5,7.276Zm0,0" transform="translate(0 0)" fill="#ea5788"/>
    <path id="Контур_4" data-name="Контур 4" d="M149.242,146.02a3.222,3.222,0,1,0,3.222,3.222A3.226,3.226,0,0,0,149.242,146.02Zm0,0" transform="translate(-136.743 -136.742)" fill="#ea5788"/>
    <path id="Контур_5" data-name="Контур 5" d="M388.325,96.3a.333.333,0,1,0,.333.333A.333.333,0,0,0,388.325,96.3Zm0,0" transform="translate(-368.697 -91.511)" fill="#ea5788"/>
  </g>
</svg>
