<svg xmlns="http://www.w3.org/2000/svg" width="23.621" height="20.26" viewBox="0 0 23.621 20.26">
  <path id="_73991-1" data-name="73991-1" d="M23.565,27.191l-3.409-6.83a.569.569,0,0,0-.451-.92H13.264a.69.69,0,0,0,.477-.656h0a.69.69,0,0,0-.69-.69H12.8a1.606,1.606,0,1,0-1.974,0h-.254a.69.69,0,0,0-.69.69h0a.69.69,0,0,0,.477.656H3.983v0H3.917A.57.57,0,0,0,3.5,20.4L.058,27.3a.548.548,0,0,0-.05.335.35.35,0,0,0,0,.065,3.993,3.993,0,0,0,7.949,0,.361.361,0,0,0,0-.066.548.548,0,0,0-.05-.335L4.553,20.585H11.04V33.773H5.72a1.159,1.159,0,0,0-1.159,1.159.552.552,0,0,0,.552.552h13.4a.552.552,0,0,0,.552-.552A1.159,1.159,0,0,0,17.9,33.773h-5.32V20.585h6.431l-3.3,6.607a.548.548,0,0,0-.05.335.35.35,0,0,0,0,.065,3.993,3.993,0,0,0,7.949,0,.361.361,0,0,0,0-.066A.548.548,0,0,0,23.565,27.191Zm-22.281.125,2.7-5.405,2.7,5.405Zm15.659-.11,2.7-5.405,2.7,5.405Z" transform="translate(-0.001 -15.224)" />
</svg>
