<svg xmlns="http://www.w3.org/2000/svg" width="23.762" height="33.762" viewBox="0 0 23.762 33.762">
  <g id="location_pink" transform="translate(-88.23 -10.804)">
    <path id="Контур_2" data-name="Контур 2" d="M91.848,33.761a2.073,2.073,0,0,1-1.807-1.022l-.012-.02L81.461,17.395a11.519,11.519,0,0,1,.157-11.614A11.773,11.773,0,0,1,91.582,0c.177,0,.355,0,.532,0a11.773,11.773,0,0,1,9.965,5.779,11.519,11.519,0,0,1,.157,11.614L93.667,32.718l-.012.02A2.073,2.073,0,0,1,91.848,33.761Zm0-31.652-.222,0a9.62,9.62,0,0,0-8.14,4.727,9.467,9.467,0,0,0-.13,9.544l8.492,15.186,8.492-15.186a9.466,9.466,0,0,0-.13-9.544,9.62,9.62,0,0,0-8.14-4.727l-.222,0Z" transform="translate(8.263 10.804)" fill="#ea5788"/>
    <path id="Контур_3" data-name="Контур 3" d="M188.881,97.762a4.881,4.881,0,1,1,4.881-4.881A4.886,4.886,0,0,1,188.881,97.762Zm0-7.592a2.712,2.712,0,1,0,2.712,2.712A2.715,2.715,0,0,0,188.881,90.169Z" transform="translate(-88.77 -71.196)" fill="#ea5788"/>
  </g>
</svg>
