<svg xmlns="http://www.w3.org/2000/svg" width="14.989" height="16.563" viewBox="0 0 14.989 16.563">
  <g id="_232587" data-name="232587" transform="translate(-68.817)">
    <g id="Сгруппировать_20" data-name="Сгруппировать 20" transform="translate(68.817)">
      <path id="Контур_25" data-name="Контур 25" d="M76.311,0c-4.132,0-7.494,2.765-7.494,6.164,0,1.9,1.19,4.209,3.537,6.858a33.023,33.023,0,0,0,3.482,3.38.788.788,0,0,0,.94.008,30.066,30.066,0,0,0,3.489-3.3c2.349-2.611,3.54-4.95,3.54-6.952C83.806,2.765,80.444,0,76.311,0Zm0,9.858c-2.02,0-3.58-2.361-3.58-3.993a3.586,3.586,0,0,1,7.15,0C79.882,7.5,78.332,9.858,76.312,9.858Z" transform="translate(-68.817 0)" fill="#fff"/>
    </g>
  </g>
</svg>
