<svg xmlns="http://www.w3.org/2000/svg" width="18.761" height="13.368" viewBox="0 0 18.761 13.368">
  <g id="_95645" data-name="95645" transform="translate(0 -33.085)">
    <path id="Контур_27" data-name="Контур 27" d="M165.641,48.869c0-.021.015-.042.014-.063l-5.725,5.517,5.718,5.34c0-.038-.007-.077-.007-.116Z" transform="translate(-146.893 -14.44)" fill="#fff"/>
    <path id="Контур_28" data-name="Контур 28" d="M22.274,126.9l-2.337,2.249a.611.611,0,0,1-.841.007l-2.331-2.172-5.756,5.548a1.326,1.326,0,0,0,.447.089H27.569a1.325,1.325,0,0,0,.643-.177Z" transform="translate(-10.113 -86.169)" fill="#fff"/>
    <path id="Контур_29" data-name="Контур 29" d="M15.024,41.7l8.738-8.417a1.324,1.324,0,0,0-.675-.2H6.975a1.328,1.328,0,0,0-.845.315Z" transform="translate(-5.63)" fill="#fff"/>
    <path id="Контур_30" data-name="Контур 30" d="M0,52.1V62.573a1.329,1.329,0,0,0,.058.347l5.684-5.474Z" transform="translate(0 -17.465)" fill="#fff"/>
  </g>
</svg>
