<svg xmlns="http://www.w3.org/2000/svg" width="23.699" height="23.699" viewBox="0 0 23.699 23.699">
  <g id="phone_pink" transform="translate(0)">
    <path id="Контур_6" data-name="Контур 6" d="M17.033,23.7a6.6,6.6,0,0,1-2.265-.4A24.155,24.155,0,0,1,6,17.7,24.154,24.154,0,0,1,.405,8.932,6.555,6.555,0,0,1,.071,5.71,6.722,6.722,0,0,1,3.525.789,6.6,6.6,0,0,1,6.685,0a.741.741,0,0,1,.724.585L8.572,6.01a.741.741,0,0,1-.2.679L6.385,8.675a19.494,19.494,0,0,0,8.639,8.639l1.986-1.986a.741.741,0,0,1,.679-.2l5.425,1.162a.741.741,0,0,1,.585.724,6.6,6.6,0,0,1-.789,3.16,6.722,6.722,0,0,1-4.921,3.455,6.587,6.587,0,0,1-.957.07ZM6.093,1.514A5.189,5.189,0,0,0,1.8,8.426,22.462,22.462,0,0,0,15.273,21.9a5.189,5.189,0,0,0,6.913-4.3l-4.413-.946L15.7,18.735a.74.74,0,0,1-.839.147A20.97,20.97,0,0,1,4.818,8.839.741.741,0,0,1,4.965,8L7.039,5.926Z" transform="translate(0 0)" fill="#ea5788"/>
    <path id="Контур_7" data-name="Контур 7" d="M251.869,12.59a.741.741,0,0,1-.741-.741A10.38,10.38,0,0,0,240.761,1.481a.741.741,0,0,1,0-1.481,11.849,11.849,0,0,1,11.849,11.849A.741.741,0,0,1,251.869,12.59Z" transform="translate(-228.91)" fill="#ea5788"/>
    <path id="Контур_8" data-name="Контур 8" d="M248.907,73.627a.741.741,0,0,1-.741-.741,7.414,7.414,0,0,0-7.406-7.406.741.741,0,0,1,0-1.481,8.9,8.9,0,0,1,8.887,8.887A.741.741,0,0,1,248.907,73.627Z" transform="translate(-228.91 -61.038)" fill="#ea5788"/>
    <path id="Контур_9" data-name="Контур 9" d="M245.944,134.665a.741.741,0,0,1-.741-.741,4.448,4.448,0,0,0-4.443-4.443.741.741,0,0,1,0-1.481,5.931,5.931,0,0,1,5.924,5.924A.741.741,0,0,1,245.944,134.665Z" transform="translate(-228.91 -122.076)" fill="#ea5788"/>
  </g>
</svg>
