<svg xmlns="http://www.w3.org/2000/svg" width="32.914" height="40.86" viewBox="0 0 32.914 40.86">
  <g id="_916871" data-name="916871" transform="translate(-0.006 0.278)">
    <g id="Сгруппировать_43" data-name="Сгруппировать 43" transform="translate(16.874 -0.278)">
      <g id="Сгруппировать_42" data-name="Сгруппировать 42" transform="translate(0 0)">
        <path id="Контур_42" data-name="Контур 42" d="M285.332,79.265h-1.365a.616.616,0,0,0,0,1.232h1.365a2.066,2.066,0,0,1,2.063,2.063v8.36a2.06,2.06,0,0,1-.785,1.617V90.927a2.611,2.611,0,0,0-2.132-2.566l-.4-.074a2.78,2.78,0,0,0,.137-.864V86.008a2.791,2.791,0,1,0-5.581,0v1.415a2.781,2.781,0,0,0,.137.864l-.4.074a2.611,2.611,0,0,0-2.132,2.566v1.785A2.064,2.064,0,0,1,275.2,90.92V82.56a2.066,2.066,0,0,1,2.063-2.063h1.468a.616.616,0,0,0,0-1.232h-1.468a3.3,3.3,0,0,0-3.295,3.295v8.36a3.3,3.3,0,0,0,3.295,3.295h3.1v1.771a.616.616,0,0,0,1.05.437l2.222-2.208h1.7a3.3,3.3,0,0,0,3.295-3.295V82.56A3.3,3.3,0,0,0,285.332,79.265Zm-5.464,6.743a1.559,1.559,0,1,1,3.118,0v1.415a1.559,1.559,0,1,1-3.118,0Zm5.51,6.974h-2a.616.616,0,0,0-.434.179l-1.352,1.343V93.6a.616.616,0,0,0-.616-.616h-3.5V90.927a1.379,1.379,0,0,1,1.126-1.355l.868-.162a2.785,2.785,0,0,0,3.915,0l.868.162a1.379,1.379,0,0,1,1.126,1.355v2.055Z" transform="translate(-273.969 -79.265)" fill="#232323"/>
      </g>
    </g>
    <g id="Сгруппировать_45" data-name="Сгруппировать 45" transform="translate(23.334 -0.247)">
      <g id="Сгруппировать_44" data-name="Сгруппировать 44" transform="translate(0 0)">
        <path id="Контур_43" data-name="Контур 43" d="M380.031,79.449a.615.615,0,1,0,.181.435A.617.617,0,0,0,380.031,79.449Z" transform="translate(-378.98 -79.269)" fill="#232323"/>
      </g>
    </g>
    <g id="Сгруппировать_47" data-name="Сгруппировать 47" transform="translate(13.403 26.416)">
      <g id="Сгруппировать_46" data-name="Сгруппировать 46">
        <path id="Контур_44" data-name="Контур 44" d="M170.16,333.74a.793.793,0,1,0,.232.561A.8.8,0,0,0,170.16,333.74Z" transform="translate(-168.806 -333.507)" fill="#232323"/>
      </g>
    </g>
    <g id="Сгруппировать_49" data-name="Сгруппировать 49" transform="translate(0.006 7.643)">
      <g id="Сгруппировать_48" data-name="Сгруппировать 48">
        <path id="Контур_45" data-name="Контур 45" d="M32.221,124.606l-6.1-6.1a2.388,2.388,0,0,0-3.036-.283L19.2,120.884a.8.8,0,0,1-1.012-.094L16.9,119.5a.8.8,0,1,0-1.126,1.127l1.287,1.288a2.388,2.388,0,0,0,3.036.283l3.892-2.663A.8.8,0,0,1,25,119.63l6.1,6.1a.8.8,0,0,1,0,1.127,10.035,10.035,0,0,1-14.183,0L4.53,114.467a10.042,10.042,0,0,1,0-14.194.8.8,0,0,1,1.126,0l6.1,6.1a.8.8,0,0,1,.094,1.013l-2.661,3.895a2.392,2.392,0,0,0,.283,3.039l1.935,1.936a.8.8,0,0,0,1.126-1.127L10.6,113.2a.8.8,0,0,1-.094-1.013l2.661-3.895a2.392,2.392,0,0,0-.283-3.039l-6.1-6.1a2.39,2.39,0,0,0-3.377,0,11.65,11.65,0,0,0,0,16.447l12.383,12.392a11.628,11.628,0,0,0,16.435,0A2.394,2.394,0,0,0,32.221,124.606Z" transform="translate(-0.006 -98.447)" fill="#232323"/>
      </g>
    </g>
    <g id="Сгруппировать_51" data-name="Сгруппировать 51" transform="translate(4.53 14.422)">
      <g id="Сгруппировать_50" data-name="Сгруппировать 50">
        <path id="Контур_46" data-name="Контур 46" d="M63.192,187.407l-4.81-4.81a.794.794,0,0,0-1.122,1.122l4.81,4.81a.794.794,0,1,0,1.122-1.122Z" transform="translate(-57.027 -182.365)" fill="#232323"/>
      </g>
    </g>
    <g id="Сгруппировать_53" data-name="Сгруппировать 53" transform="translate(22.715 32.587)">
      <g id="Сгруппировать_52" data-name="Сгруппировать 52">
        <path id="Контур_47" data-name="Контур 47" d="M292.314,416.528l-5.061-5.061a.794.794,0,1,0-1.122,1.122l5.061,5.061a.794.794,0,1,0,1.122-1.122Z" transform="translate(-285.898 -411.235)" fill="#232323"/>
      </g>
    </g>
  </g>
</svg>
