<svg xmlns="http://www.w3.org/2000/svg" width="32.014" height="40.862" viewBox="0 0 32.014 40.862">
  <path id="Контур_12" data-name="Контур 12" d="M86.847,30.967a.6.6,0,0,0,.6-.6V16a3.27,3.27,0,0,0-.784-2.058L82.223,8.566a3.51,3.51,0,0,0-.79-.708c.018-.183.028-.368.028-.554V.6a.6.6,0,1,0-1.2,0s0,6.761,0,6.79a2.963,2.963,0,0,0-.517-.046H72a3.073,3.073,0,0,0-1.558.434.606.606,0,0,0-.061.026l-5.835,2.842a3.128,3.128,0,0,0-1.456,1.531l-.009.022-2.412,6.119a.6.6,0,1,0,1.114.439l2.408-6.107a1.924,1.924,0,0,1,.886-.931l3.083-1.5-3.077,3.728a3.184,3.184,0,0,0-.7,2.058V36.673a4.279,4.279,0,0,0,.06.706l-6.168-2.733a2.775,2.775,0,0,1-1.407-3.655l.008-.018,3.9-9.7a.6.6,0,1,0-1.111-.447l-3.9,9.687a3.974,3.974,0,0,0,2.022,5.224l7.233,3.2.027.01a4.091,4.091,0,0,0,3.444,1.907H83.256a4.246,4.246,0,0,0,4.19-4.19V33.162a.6.6,0,1,0-1.2,0v3.512a3.033,3.033,0,0,1-2.993,2.993H68.491a2.957,2.957,0,0,1-2.913-2.993V16a1.976,1.976,0,0,1,.43-1.3l4.439-5.379A2.044,2.044,0,0,1,72,8.54h7.741a1.763,1.763,0,0,1,.336.033,4.509,4.509,0,0,1-2.556,2.878,1.875,1.875,0,1,0,.25,1.189,5.7,5.7,0,0,0,3.374-3.479c.052.052.1.108.151.166l4.439,5.379a2.075,2.075,0,0,1,.51,1.3V30.368a.6.6,0,0,0,.6.6ZM75.914,13.09a.678.678,0,1,1,.678-.678A.679.679,0,0,1,75.914,13.09Z" transform="translate(-55.432 -0.001)" fill="#232323"/>
</svg>
