<svg id="_633544-1" data-name="633544-1" xmlns="http://www.w3.org/2000/svg" width="16.56" height="16.56" viewBox="0 0 16.56 16.56">
  <g id="Сгруппировать_21" data-name="Сгруппировать 21">
    <path id="Контур_26" data-name="Контур 26" d="M15.253,10.9a9.467,9.467,0,0,1-2.97-.472,1.273,1.273,0,0,0-1.293.274l-1.88,1.42A10.5,10.5,0,0,1,4.436,7.452L5.818,5.616a1.319,1.319,0,0,0,.323-1.334,9.464,9.464,0,0,1-.476-2.976A1.309,1.309,0,0,0,4.358,0H1.307A1.309,1.309,0,0,0,0,1.307,15.271,15.271,0,0,0,15.253,16.56a1.309,1.309,0,0,0,1.307-1.307V12.211A1.309,1.309,0,0,0,15.253,10.9Z" fill="#fff"/>
  </g>
</svg>
