<svg xmlns="http://www.w3.org/2000/svg" width="12.822" height="14" viewBox="0 0 12.822 14">
  <g id="viber" transform="translate(-1.38 0.013)">
    <path id="Контур_57" data-name="Контур 57" d="M14.071,8.092c.417-3.513-.2-5.73-1.315-6.733h0c-1.8-1.713-7.873-1.966-10.024.077A6.112,6.112,0,0,0,1.388,5.717c-.037,1.817-.082,5.22,3.09,6.143h0l0,1.41s-.022.571.343.686c.417.135.606-.13,1.9-1.68a11.877,11.877,0,0,0,4.027-.306,4.032,4.032,0,0,0,3.319-3.878ZM6.939,11.284S5.565,13,5.138,13.441c-.14.145-.293.131-.291-.156,0-.188.01-2.341.01-2.341-2.689-.77-2.53-3.668-2.5-5.184A5.094,5.094,0,0,1,3.482,2.166c1.888-1.77,7.213-1.374,8.57-.1,1.659,1.47,1.068,5.625,1.072,5.766a3.2,3.2,0,0,1-2.72,3.144,10.958,10.958,0,0,1-3.464.307Z" fill="#8e24aa"/>
    <path id="Контур_58" data-name="Контур 58" d="M12.1,4.3a.176.176,0,0,0,0,.353A3.17,3.17,0,0,1,15.292,8.1a.171.171,0,1,0,.341,0h0A3.518,3.518,0,0,0,12.1,4.3Z" transform="translate(-4.403 -1.798)" fill="#8e24aa"/>
    <path id="Контур_59" data-name="Контур 59" d="M14.606,8.39a.171.171,0,1,0,.341.008,2.361,2.361,0,0,0-2.319-2.527.177.177,0,0,0-.024.353,2.012,2.012,0,0,1,2,2.166Z" transform="translate(-4.617 -2.455)" fill="#8e24aa"/>
    <path id="Контур_60" data-name="Контур 60" d="M11.645,9.527a.538.538,0,0,0-.7.1l-.254.328a.453.453,0,0,1-.37.145A3.383,3.383,0,0,1,8.093,7.8a.49.49,0,0,1,.139-.382l.317-.262a.584.584,0,0,0,.1-.727,7.574,7.574,0,0,0-.868-1.254.469.469,0,0,0-.631-.107H7.142c-.5.295-1.056.847-.879,1.415a9.535,9.535,0,0,0,2.62,3.952,10.074,10.074,0,0,0,2.7,1.543l.005.008c.549.183,1.083-.39,1.368-.91v0a.5.5,0,0,0-.1-.645,6.871,6.871,0,0,0-1.21-.9Z" transform="translate(-2.023 -2.087)" fill="#8e24aa"/>
    <path id="Контур_61" data-name="Контур 61" d="M13.054,7.851c.56.033.832.325.861.926a.171.171,0,1,0,.341-.016A1.17,1.17,0,0,0,13.073,7.5a.177.177,0,0,0-.019.353Z" transform="translate(-4.804 -3.134)" fill="#8e24aa"/>
  </g>
</svg>
