<svg xmlns="http://www.w3.org/2000/svg" width="30" height="30" viewBox="0 0 30 30">
  <g id="_1077093" data-name="1077093" transform="translate(0.001)">
    <path id="Контур_3" data-name="Контур 3" d="M21.878,0H8.12A8.13,8.13,0,0,0,0,8.121V21.879A8.13,8.13,0,0,0,8.12,30H21.879A8.13,8.13,0,0,0,30,21.879V8.121A8.13,8.13,0,0,0,21.878,0ZM15,23.2A8.2,8.2,0,1,1,23.2,15,8.212,8.212,0,0,1,15,23.2ZM23.4,8.732a2.424,2.424,0,1,1,2.424-2.424A2.426,2.426,0,0,1,23.4,8.732Zm0,0" transform="translate(0 0)" fill="#fff"/>
    <path id="Контур_4" data-name="Контур 4" d="M149.242,146.02a3.222,3.222,0,1,0,3.222,3.222A3.226,3.226,0,0,0,149.242,146.02Zm0,0" transform="translate(-134.243 -134.242)" fill="#fff"/>
    <path id="Контур_5" data-name="Контур 5" d="M388.325,96.3a.333.333,0,1,0,.333.333A.333.333,0,0,0,388.325,96.3Zm0,0" transform="translate(-364.732 -90.527)" fill="#fff"/>
  </g>
</svg>
