<svg xmlns="http://www.w3.org/2000/svg" width="43.636" height="30" viewBox="0 0 43.636 30">
  <g id="_733646" data-name="733646" transform="translate(0 -80)">
    <g id="Сгруппировать_67" data-name="Сгруппировать 67" transform="translate(0 80)">
      <path id="Контур_62" data-name="Контур 62" d="M41.782,82.891C40.6,80.785,39.314,80.4,36.7,80.251,34.085,80.074,27.515,80,21.824,80s-12.275.074-14.885.248c-2.61.15-3.9.535-5.092,2.643C.627,84.994,0,88.615,0,94.992v.022c0,6.349.627,10,1.846,12.079,1.195,2.105,2.479,2.487,5.089,2.665,2.613.153,9.185.243,14.888.243s12.262-.09,14.877-.24c2.615-.177,3.9-.559,5.084-2.665,1.23-2.081,1.852-5.73,1.852-12.079v-.022C43.636,88.615,43.015,84.994,41.782,82.891ZM16.364,103.182V86.818L30,95Z" transform="translate(0 -80)" fill="#fff"/>
    </g>
  </g>
</svg>
