<svg xmlns="http://www.w3.org/2000/svg" width="23.762" height="33.762" viewBox="0 0 23.762 33.762">
  <path id="Контур_2" data-name="Контур 2" d="M91.848,33.761a2.073,2.073,0,0,1-1.807-1.022l-.012-.02L81.461,17.395a11.519,11.519,0,0,1,.157-11.614A11.773,11.773,0,0,1,91.582,0c.177,0,.355,0,.532,0a11.773,11.773,0,0,1,9.965,5.779,11.519,11.519,0,0,1,.157,11.614L93.667,32.718l-.012.02A2.073,2.073,0,0,1,91.848,33.761Zm0-31.652-.222,0a9.62,9.62,0,0,0-8.14,4.727,9.467,9.467,0,0,0-.13,9.544l8.492,15.186,8.492-15.186a9.466,9.466,0,0,0-.13-9.544,9.62,9.62,0,0,0-8.14-4.727l-.222,0Z" transform="translate(-79.968 0.001)" fill="#ea5788"/>
</svg>
